<?xml version="1.0" encoding="UTF-8"?>
<svg width="1024px" height="1024px" viewBox="0 0 1024 1024" version="1.1" xmlns="http://www.w3.org/2000/svg" xmlns:xlink="http://www.w3.org/1999/xlink">
    <title>Frame</title>
    <g id="Frame" stroke="none" fill="none" fill-rule="nonzero">
        <path d="M361.804688,828.511719 C331.954427,828.511719 305.351237,824.296224 281.995117,815.865234 C258.638997,807.434245 239.099609,795.357422 223.376953,779.634766 C190.564453,747.05013 174.158203,700.79362 174.158203,640.865234 L174.158203,373.580078 C174.158203,313.423828 190.564453,267.167318 223.376953,234.810547 C239.099609,219.087891 258.638997,206.954102 281.995117,198.40918 C305.351237,189.864258 331.954427,185.591797 361.804688,185.591797 L629.089844,185.591797 C659.167969,185.591797 685.828125,189.807292 709.070312,198.238281 C732.3125,206.669271 751.794922,218.860026 767.517578,234.810547 C800.557943,267.167318 817.078125,313.423828 817.078125,373.580078 L817.078125,489.791016 C804.317708,487.284505 791.557292,486.03125 778.796875,486.03125 C766.036458,486.03125 753.389974,487.284505 740.857422,489.791016 L740.857422,376.998047 C740.857422,357.401693 738.52181,340.368815 733.850586,325.899414 C729.179362,311.430013 722.058594,299.410156 712.488281,289.839844 C702.917969,280.72526 690.955078,273.718424 676.599609,268.819336 C662.244141,263.920247 645.268229,261.470703 625.671875,261.470703 L365.564453,261.470703 C345.968099,261.470703 328.935221,263.920247 314.46582,268.819336 C299.996419,273.718424 288.090495,280.72526 278.748047,289.839844 C269.177734,299.410156 262,311.430013 257.214844,325.899414 C252.429688,340.368815 250.037109,357.401693 250.037109,376.998047 L250.037109,637.105469 C250.037109,656.701823 252.429688,673.791667 257.214844,688.375 C262,702.958333 269.177734,714.921224 278.748047,724.263672 C288.090495,733.60612 299.996419,740.669922 314.46582,745.455078 C328.935221,750.240234 345.968099,752.632812 365.564453,752.632812 L556.287109,752.632812 C558.110026,766.304688 561.357096,779.520833 566.02832,792.28125 C570.699544,805.041667 576.453125,817.11849 583.289062,828.511719 L361.804688,828.511719 Z M779.480469,891.744141 C755.098958,891.744141 732.198568,887.072917 710.779297,877.730469 C689.360026,868.388021 670.504232,855.570638 654.211914,839.27832 C637.919596,822.986003 625.102214,804.130208 615.759766,782.710938 C606.417318,761.291667 601.746094,738.391276 601.746094,714.009766 C601.746094,689.400391 606.417318,666.443034 615.759766,645.137695 C625.102214,623.832357 637.919596,604.976562 654.211914,588.570312 C670.504232,572.164062 689.360026,559.34668 710.779297,550.118164 C732.198568,540.889648 755.098958,536.275391 779.480469,536.275391 C803.861979,536.275391 826.76237,540.889648 848.181641,550.118164 C869.600911,559.34668 888.513672,572.107096 904.919922,588.399414 C921.326172,604.691732 934.086589,623.547526 943.201172,644.966797 C952.315755,666.386068 956.873047,689.400391 956.873047,714.009766 C956.873047,738.163411 952.258789,760.94987 943.030273,782.369141 C933.801758,803.788411 920.984375,822.701172 904.578125,839.107422 C888.171875,855.513672 869.259115,868.388021 847.839844,877.730469 C826.420573,887.072917 803.634115,891.744141 779.480469,891.744141 Z M757.947266,810.738281 C767.517578,810.738281 774.695312,807.320312 779.480469,800.484375 L878.259766,665.816406 C880.082682,663.309896 881.392904,660.689453 882.19043,657.955078 C882.987956,655.220703 883.386719,652.714193 883.386719,650.435547 C883.386719,642.916016 880.766276,636.64974 875.525391,631.636719 C870.284505,626.623698 864.018229,624.117188 856.726562,624.117188 C847.611979,624.117188 840.20638,628.104818 834.509766,636.080078 L755.896484,744.771484 L717.957031,702.730469 C715.678385,699.996094 712.887044,697.945312 709.583008,696.578125 C706.278971,695.210938 702.576172,694.527344 698.474609,694.527344 C691.410807,694.527344 685.201497,696.919922 679.84668,701.705078 C674.491862,706.490234 671.814453,712.984375 671.814453,721.1875 C671.814453,724.377604 672.498047,727.624674 673.865234,730.928711 C675.232422,734.232747 677.169271,737.251953 679.675781,739.986328 L736.414062,801.851562 C739.148438,805.041667 742.452474,807.320312 746.326172,808.6875 C750.19987,810.054688 754.073568,810.738281 757.947266,810.738281 Z" id="Shape" fill="#000000"></path>
    </g>
</svg>